<svg width="1200" height="900" viewBox="0 0 1200 900" fill="none" xmlns="http://www.w3.org/2000/svg">
  <defs>
    <linearGradient id="bg" x1="0" y1="0" x2="1" y2="1">
      <stop offset="0" stop-color="#1A1F2A"/>
      <stop offset="0.55" stop-color="#0D1117"/>
      <stop offset="1" stop-color="#0A0D12"/>
    </linearGradient>
    <radialGradient id="glow" cx="0" cy="0" r="1" gradientUnits="userSpaceOnUse" gradientTransform="translate(760 260) rotate(135) scale(520 420)">
      <stop stop-color="#D6A344" stop-opacity="0.25"/>
      <stop offset="1" stop-color="#D6A344" stop-opacity="0"/>
    </radialGradient>
    <filter id="soft" x="-30%" y="-30%" width="160%" height="160%" color-interpolation-filters="sRGB">
      <feGaussianBlur stdDeviation="12" />
    </filter>
  </defs>
  <rect width="1200" height="900" rx="28" fill="url(#bg)"/>
  <circle cx="820" cy="260" r="240" fill="url(#glow)" filter="url(#soft)"/>
  <g opacity="0.28">
    <path d="M600 190c84 0 152 68 152 152s-68 152-152 152-152-68-152-152 68-152 152-152Z" fill="#E8EAED"/>
    <path d="M250 820c56-162 190-272 350-272s294 110 350 272H250Z" fill="#E8EAED"/>
  </g>
  <g opacity="0.18">
    <path d="M0 0H1200V900H0V0Z" stroke="#FFFFFF" stroke-opacity="0.14"/>
    <path d="M0 120H1200M0 240H1200M0 360H1200M0 480H1200M0 600H1200M0 720H1200M0 840H1200" stroke="#FFFFFF" stroke-opacity="0.06"/>
    <path d="M120 0V900M240 0V900M360 0V900M480 0V900M600 0V900M720 0V900M840 0V900M960 0V900M1080 0V900" stroke="#FFFFFF" stroke-opacity="0.06"/>
  </g>
</svg>

